<?xml version="1.0" encoding="UTF-8" standalone="no"?>
<!-- Created with Inkscape (http://www.inkscape.org/) -->

<svg
   xmlns:dc="http://purl.org/dc/elements/1.1/"
   xmlns:cc="http://creativecommons.org/ns#"
   xmlns:rdf="http://www.w3.org/1999/02/22-rdf-syntax-ns#"
   xmlns:svg="http://www.w3.org/2000/svg"
   xmlns="http://www.w3.org/2000/svg"
   xmlns:sodipodi="http://sodipodi.sourceforge.net/DTD/sodipodi-0.dtd"
   xmlns:inkscape="http://www.inkscape.org/namespaces/inkscape"
   width="744.09448"
   height="405"
   id="svg6650"
   version="1.1"
   inkscape:version="0.48.0 r9654"
   sodipodi:docname="New document 112">
  <defs
     id="defs6652" />
  <sodipodi:namedview
     id="base"
     pagecolor="#ffffff"
     bordercolor="#666666"
     borderopacity="1.0"
     inkscape:pageopacity="0.0"
     inkscape:pageshadow="2"
     inkscape:zoom="0.60625516"
     inkscape:cx="370.39777"
     inkscape:cy="328.24463"
     inkscape:document-units="px"
     inkscape:current-layer="layer1"
     showgrid="false"
     inkscape:window-width="1381"
     inkscape:window-height="856"
     inkscape:window-x="59"
     inkscape:window-y="0"
     inkscape:window-maximized="0" />
  <metadata
     id="metadata6655">
    <rdf:RDF>
      <cc:Work
         rdf:about="">
        <dc:format>image/svg+xml</dc:format>
        <dc:type
           rdf:resource="http://purl.org/dc/dcmitype/StillImage" />
        <dc:title></dc:title>
      </cc:Work>
    </rdf:RDF>
  </metadata>
  <g
     inkscape:label="Layer 1"
     inkscape:groupmode="layer"
     id="layer1"
     transform="translate(0,-647.36218)">
    <g
       id="g7474"
       transform="translate(-1.7971151,631.88541)"
       style="fill:#c8beb7">
      <path
         inkscape:connector-curvature="0"
         id="path7438"
         d="m 233.42982,414.2014 c -1.471,-0.6534 -3.64117,-2.4168 -4.82258,-3.9187 -1.42993,-1.8179 -3.08822,-2.7308 -4.96043,-2.7308 -1.89642,0 -3.34592,-0.8142 -4.45047,-2.5 -1.92821,-2.9428 -5.77728,-3.2851 -11.2462,-1 -4.76019,1.9889 -5.05893,1.905 -2.66909,-0.75 1.11392,-1.2375 2.30715,-3.0477 2.65164,-4.0227 0.99824,-2.8253 3.61711,-3.2502 5.29217,-0.8588 2.09469,2.9906 3.45639,2.6962 8.64218,-1.8685 2.49933,-2.2 5.46533,-4 6.5911,-4 1.12577,0 2.42305,-0.6722 2.88283,-1.4938 0.6979,-1.2471 1.36283,-1.2949 4.02562,-0.2899 2.94693,1.1124 3.41926,0.984 6.20699,-1.6868 l 3.01733,-2.8908 2.25674,2.0557 c 1.2412,1.1306 3.36155,2.6271 4.71188,3.3256 2.27356,1.176 2.70262,0.9837 5.80132,-2.601 3.59644,-4.1605 3.25578,-4.2484 6.96872,1.7996 3.70088,6.0285 7.27481,4.1415 7.27481,-3.841 0,-5.1276 0.12115,-5.3776 2.60564,-5.3776 1.43311,0 3.94263,-1.125 5.57673,-2.5 1.72558,-1.452 4.22985,-2.5 5.97381,-2.5 2.87404,0 2.97076,0.1393 2.2568,3.25 -1.67692,7.3063 -0.65365,8.4678 7.58702,8.6118 2.8877,0.05 3.8522,-0.5007 5.51323,-3.1503 1.58712,-2.5318 2.80015,-3.277 5.7312,-3.5207 3.95603,-0.3291 5.07816,-1.8361 7.72515,-10.375 0.73209,-2.3616 2.28869,-4.3738 4.33624,-5.6055 1.7568,-1.0567 5.27193,-3.772 7.81141,-6.0339 4.24187,-3.7783 4.67187,-4.5957 5.28951,-10.0549 0.36976,-3.2682 1.29433,-6.4584 2.0546,-7.0894 0.76027,-0.631 1.69959,-3.0338 2.08737,-5.3397 0.38777,-2.3058 1.77295,-5.4644 3.07817,-7.0191 1.30521,-1.5547 2.37312,-4.128 2.37312,-5.7185 0,-2.3293 1.02123,-3.6461 5.25119,-6.771 2.88815,-2.1336 5.8674,-4.6218 6.62056,-5.5293 1.25107,-1.5074 1.66436,-1.391 4.78361,1.3478 3.54931,3.1163 8.0116,3.9307 10.09912,1.8432 1.44151,-1.4415 6.95237,4.0769 7.43074,7.4409 0.27761,1.9522 0.9998,2.2492 6.11585,2.515 5.13935,0.2671 5.73359,0.514 5.2096,2.165 -0.8196,2.5823 0.43697,7.0336 1.98553,7.0336 0.70365,0 3.60846,1.6021 6.45513,3.5603 6.46679,4.4484 10.077,4.3989 11.5501,-0.1583 1.62912,-5.0399 3.23392,-6.309 7.82789,-6.1905 2.29387,0.059 5.18318,-0.2418 6.42068,-0.6686 1.68247,-0.5804 2.25,-0.3954 2.25,0.7335 0,0.8303 0.675,1.7686 1.5,2.0852 0.85517,0.3282 1.5,1.8197 1.5,3.4695 0,1.7099 1.22743,4.4384 3,6.6689 1.65,2.0763 2.99337,3.8256 2.98527,3.8875 -0.008,0.062 -0.8556,2.8125 -1.88335,6.1125 l -1.86862,6 -6.16034,0.2988 c -5.42496,0.2632 -6.29368,0.5915 -7.27717,2.75 -0.83341,1.8292 -0.81515,3.1133 0.072,5.0603 1.05358,2.3124 0.90123,2.8757 -1.33948,4.9523 -2.68239,2.4859 -3.48308,7.4386 -1.20259,7.4386 0.72912,0 2.38256,1.125 3.67431,2.5 1.60083,1.704 3.41774,2.5 5.70643,2.5 4.41009,0 9.21103,2.1106 12.21788,5.3711 3.16299,3.4299 5.52727,3.3176 9.83797,-0.4672 2.90378,-2.5496 4.07458,-2.9828 6.63201,-2.454 1.70814,0.3532 6.82109,0.9135 11.36212,1.2451 6.79211,0.496 8.98501,0.2744 12.36458,-1.2496 4.01274,-1.8094 4.14036,-1.8085 5.49359,0.042 2.44088,3.3381 1.67676,5.1086 -2.7813,6.4443 -5.68834,1.7042 -21.54866,2.5334 -25.83328,1.3505 -3.62759,-1.0015 -9,0.074 -9,1.801 0,1.7327 -7.26717,0.9147 -10.69512,-1.2039 -2.48509,-1.5359 -4.38299,-1.9662 -6.88302,-1.5605 -2.77538,0.4504 -3.92991,0.082 -5.89139,-1.8794 -1.94541,-1.9453 -3.46801,-2.4395 -7.51643,-2.4395 -3.64455,0 -5.24323,-0.4336 -5.66664,-1.537 -0.78811,-2.0538 -5.60623,-4.463 -8.92546,-4.463 -2.62691,0 -16.42197,-9.2555 -16.42197,-11.0179 0,-0.4558 -1.12246,-2.1626 -2.49436,-3.793 -4.98989,-5.9302 -12.56213,-4.9503 -23.00564,2.9768 -3.3,2.5049 -7.62111,5.1337 -9.60246,5.8418 -3.29154,1.1763 -3.78782,1.102 -5.75,-0.8602 -2.57375,-2.5737 -2.17769,-2.5603 -9.64022,-0.3266 -5.247,1.5706 -6.33791,2.3522 -8.76714,6.2814 -1.52595,2.4682 -3.11042,6.4556 -3.52104,8.8609 -0.70745,4.1441 -1.00801,4.4653 -5.73286,6.1276 -2.74246,0.9648 -6.79432,1.7891 -9.00415,1.8317 -2.58485,0.05 -5.38807,1.0086 -7.85964,2.6881 -3.24797,2.207 -4.21852,2.4389 -6.27919,1.5 -2.75925,-1.2572 -8.63648,-1.4841 -9.74442,-0.3761 -0.40395,0.4039 -7.18595,0.5859 -15.07112,0.4044 -13.45647,-0.3097 -14.46533,-0.2013 -16.43221,1.7656 -1.15255,1.1525 -2.09555,3.1301 -2.09555,4.3946 0,1.6962 -0.87087,2.614 -3.321,3.5 -3.97307,1.4367 -5.33424,1.4137 -8.85356,-0.1496 z"
         style="fill:#c8beb7" />
      <path
         inkscape:connector-curvature="0"
         id="path7436"
         d="m 214.95371,396.0199 c -0.4053,-1.0562 -1.87089,-1.5047 -4.71862,-1.444 -5.99326,0.1277 -10.2686,-0.9664 -12.22542,-3.1286 -0.9434,-1.0425 -2.90809,-1.8954 -4.366,-1.8954 -1.4579,0 -4.20066,-1.1637 -6.09501,-2.586 -3.20836,-2.4088 -3.94489,-2.5426 -10.75281,-1.953 -4.01969,0.3482 -8.3628,1.0338 -9.65136,1.5237 -2.66577,1.0136 -4.58593,-0.5833 -7.38261,-6.1397 -1.32371,-2.6299 -2.86577,-3.7164 -7.6575,-5.3953 -5.0736,-1.7776 -6.04811,-2.5073 -6.31159,-4.7258 -0.28601,-2.4083 -0.7374,-2.6483 -5.5,-2.9238 l -5.18841,-0.3001 -0.32015,-4 c -0.37895,-4.7347 -2.83251,-7.6693 -8.84585,-10.5804 -2.3837,-1.1539 -4.334,-2.4356 -4.334,-2.8483 0,-0.4126 1.14838,-1.2735 2.55196,-1.913 1.40358,-0.6395 3.19756,-2.6243 3.98663,-4.4105 0.78907,-1.7863 2.56345,-4.5978 3.94307,-6.2478 2.38017,-2.8466 2.50866,-3.6322 2.51337,-15.3655 l 0.005,-12.3656 4.25,-3.8958 c 3.1008,-2.8425 4.33743,-3.4872 4.57332,-2.3845 0.17783,0.8313 0.82864,1.5114 1.44625,1.5114 2.1878,0 8.60796,-5.2165 11.15262,-9.0618 2.51147,-3.7951 2.70164,-3.883 7.09751,-3.2804 5.11855,0.7015 7.42559,-0.6973 9.5303,-5.7785 1.05298,-2.5421 1.62787,-2.8893 3.94244,-2.381 2.15861,0.4742 3.75088,-0.2278 7.82921,-3.4516 2.81573,-2.2257 5.59389,-4.0467 6.17368,-4.0467 1.26126,0 3.00713,4.2592 2.99851,7.3151 -0.003,1.2017 -0.7473,3.5349 -1.65313,5.1849 -5.04431,9.1884 -5.26222,9.7781 -4.28635,11.6016 0.53805,1.0053 2.78084,2.368 4.98398,3.028 2.20314,0.6601 4.9097,2.1385 6.01458,3.2853 5.61662,5.8298 7.81929,9.3907 8.12477,13.1348 0.27378,3.3555 0.69873,3.9986 2.82231,4.271 3.01644,0.387 5,2.7283 5,5.9018 0,2.911 1.81915,3.677 5.45205,2.2957 2.55998,-0.9733 3.07941,-0.7437 6.13082,2.7092 1.91724,2.1695 3.35157,4.8877 3.3755,6.3969 0.0644,4.0613 2.85602,11.0574 5.01583,12.5702 1.07027,0.7496 2.21757,3.0375 2.54954,5.0842 0.33197,2.0467 1.02252,4.7497 1.53455,6.0066 0.78392,1.9243 0.40722,2.7451 -2.38487,5.1966 -2.38439,2.0935 -3.78741,4.6075 -4.99462,8.9496 -0.92334,3.3211 -1.6788,6.8963 -1.6788,7.945 0,1.1371 -0.90815,2.1431 -2.25,2.4924 -1.2375,0.3221 -3.96254,2.1709 -6.05565,4.1084 -4.1963,3.8843 -5.46555,4.2825 -6.34502,1.9907 z"
         style="fill:#c8beb7" />
      <path
         inkscape:connector-curvature="0"
         id="path7434"
         d="m 564.38116,395.5596 c -1.49777,-0.4512 -3.97277,-1.8058 -5.5,-3.0101 -2.66402,-2.1008 -3.33696,-2.1609 -16.57125,-1.4789 -11.72393,0.6041 -14.05075,0.4789 -15.50183,-0.8344 -0.93905,-0.8498 -2.99449,-2.0345 -4.56766,-2.6326 l -2.8603,-1.0875 2.64762,-2.0826 c 1.736,-1.3655 2.45477,-2.6902 2.08754,-3.8473 -0.44251,-1.3942 0.16284,-1.8819 2.88373,-2.3235 1.8941,-0.3074 4.64974,-1.349 6.12364,-2.3147 2.3654,-1.5499 2.60815,-2.2041 2.069,-5.5757 -0.4908,-3.0693 -0.21553,-4.1583 1.40096,-5.5423 1.10647,-0.9474 2.01177,-2.3289 2.01177,-3.0699 0,-2.4582 4.41805,-0.8405 5.8418,2.139 1.15949,2.4265 1.75197,2.7418 4.00937,2.1338 3.46948,-0.9345 16.3422,-0.5644 17.63861,0.5071 0.55562,0.4592 2.33737,0.9872 3.95943,1.1734 2.91953,0.3351 2.94649,0.3961 2.67883,6.0599 -0.26097,5.5219 -0.1546,5.792 3.05078,7.7463 3.84788,2.3459 7.66058,2.6014 10.27651,0.6886 1.79734,-1.3142 1.83351,-3.7192 0.11694,-7.7743 -0.49495,-1.1692 0.30151,-2.2 2.8714,-3.7163 2.16609,-1.278 3.55633,-2.8702 3.55633,-4.073 0,-1.086 0.45489,-2.2558 1.01088,-2.5994 0.55598,-0.3436 0.97825,-1.8327 0.93839,-3.309 -0.16536,-6.1235 1.45581,-9.6175 5.34982,-11.5303 2.06695,-1.0153 4.412,-1.5951 5.21121,-1.2884 0.79922,0.3067 3.37385,3.2323 5.72141,6.5014 6.40198,8.9151 11.15848,10.4738 14.66217,4.8047 1.13135,-1.8306 3.21643,-3.8566 4.63352,-4.5022 2.92469,-1.3326 5.44598,-6.5264 5.52793,-11.3874 0.0649,-3.8518 5.0788,-8.7155 7.22265,-7.0063 1.89494,1.5108 5.46383,0.8154 7.98873,-1.5566 2.90925,-2.7331 8.01023,-3.1835 10.5032,-0.9274 3.55563,3.2178 11.23009,1.1328 11.23009,-3.051 0,-0.6059 0.96654,-1.2455 2.14787,-1.4213 3.33553,-0.4962 4.62389,-3.3092 2.56009,-5.5897 -2.0993,-2.3197 -2.29264,-7.2298 -0.28469,-7.2298 0.78281,0 2.76027,-1.125 4.39436,-2.5 3.05775,-2.5729 6.59269,-3.2631 7.68237,-1.5 0.83099,1.3446 4.8246,1.2649 7.94888,-0.1587 2.13557,-0.973 2.88135,-0.8528 4.65486,0.75 2.36436,2.1369 5.52008,2.0049 8.14798,-0.3408 1.59415,-1.4229 2.07305,-1.3921 5.32394,0.343 3.3947,1.8118 3.54212,2.1053 2.96649,5.9065 -2.05025,13.5391 -1.83628,14.6773 3.11296,16.559 1.50202,0.571 2.45476,2.0097 2.89896,4.3776 0.36392,1.9398 2.3435,5.4476 4.39907,7.7952 2.05557,2.3475 4.25703,5.2511 4.89213,6.4525 1.58008,2.9888 1.45623,14.6583 -0.19759,18.6165 -1.52509,3.65 -7.5528,8.6992 -10.38518,8.6992 -2.64314,0 -10.04581,-4.9923 -14.7625,-9.9556 -5.0206,-5.2832 -8.34605,-7.0444 -13.30112,-7.0444 -6.47047,0 -10.05348,1.7947 -12.27439,6.148 -1.10195,2.16 -3.80847,5.1479 -6.01447,6.6397 -2.20601,1.4917 -6.28044,4.4436 -9.05429,6.5597 -6.5015,4.9598 -15.2571,7.4801 -29.85573,8.5941 -6.325,0.4827 -13.01115,1.4292 -14.8581,2.1035 -2.34894,0.8576 -6.3897,1.0172 -13.44608,0.5312 -10.99725,-0.7574 -15.18004,-2.3851 -16.15966,-6.2882 -1.50634,-6.0017 -10.62372,-4.2004 -18.47396,3.6498 -4.13261,4.1326 -5.45134,4.5262 -10.28542,3.0699 z"
         style="fill:#c8beb7" />
      <path
         inkscape:connector-curvature="0"
         id="path7432"
         d="m 505.60438,394.5519 c -1.375,-0.4404 -6.8875,-0.8455 -12.25,-0.9003 l -9.75,-0.1 0,-2.845 c 0,-4.0226 -3.14542,-6.6343 -6.71496,-5.5755 -1.53177,0.4544 -9.37752,0.8474 -17.43499,0.8733 l -14.64995,0.047 -2.67067,2.8777 -2.67067,2.8778 -3.17938,-3.0664 c -3.69022,-3.5591 -7.47987,-5.1891 -12.06437,-5.1891 -2.16209,0 -4.32242,-0.9532 -6.4349,-2.8392 -3.70444,-3.3073 -3.92571,-4.5252 -1.17254,-6.4536 1.61965,-1.1344 1.9578,-2.353 1.75,-6.3066 l -0.25757,-4.9006 6,-0.3049 c 3.3,-0.1677 6.3391,-0.6418 6.75356,-1.0536 0.88376,-0.878 3.74644,-11.488 3.74644,-13.8856 0,-0.9055 -1.16109,-2.8584 -2.58019,-4.3396 -1.61163,-1.6822 -2.79697,-4.3093 -3.15767,-6.9986 -0.6615,-4.9318 -4.60784,-9.4639 -7.19704,-8.2652 -0.86081,0.3985 -4.3776,0.7034 -7.8151,0.6776 -5.28444,-0.04 -6.25,0.2213 -6.25,1.6891 0,0.9547 -0.675,2.2961 -1.5,2.9808 -0.825,0.6847 -1.5,2.0632 -1.5,3.0634 0,3.2559 -2.06,3.2087 -6.99701,-0.1603 l -4.84708,-3.3076 4.4215,-4.5478 c 4.92913,-5.0698 5.25598,-6.4254 2.42259,-10.0477 -2.13047,-2.7237 -2.53571,-6.1305 -1.0577,-8.8922 1.26612,-2.3657 11.64252,-4.923 13.29019,-3.2753 1.62287,1.6229 7.98591,1.4615 10.32638,-0.2618 1.91495,-1.41 1.91533,-1.4776 0.0283,-5.01 -1.05208,-1.9694 -3.63958,-5.4511 -5.75,-7.7371 -2.11046,-2.286 -3.83717,-4.4764 -3.83717,-4.8675 0,-1.0419 1.79392,-2.2875 8.5,-5.9021 7.1931,-3.8771 9.0517,-5.4406 12.02195,-10.1134 1.57505,-2.4779 3.47875,-3.9238 6.26517,-4.7587 3.2817,-0.9832 4.28815,-1.9128 5.58778,-5.1608 0.87182,-2.1789 1.34865,-4.5779 1.05961,-5.3312 -0.625,-1.6287 1.12356,-3.1689 4.55865,-4.0154 2.11061,-0.5202 3.36032,0.3198 8.14466,5.474 3.11502,3.3558 6.25981,5.8876 7.00684,5.641 0.74544,-0.2461 1.90257,-1.5369 2.57141,-2.8685 0.66884,-1.3315 2.46884,-2.7366 4,-3.1224 1.53116,-0.3858 4.91135,-1.2468 7.51152,-1.9133 4.61988,-1.1844 4.77936,-1.1475 7,1.6181 3.68869,4.5939 4.69947,6.8008 4.73697,10.3427 0.0625,5.9056 2.97575,13.9548 5.92901,16.382 1.52042,1.2495 3.53869,4.3704 4.48504,6.9353 1.51359,4.1022 1.553,5.0648 0.32755,8 -3.77263,9.036 -2.68222,20.6169 2.22162,23.5951 1.57889,0.9588 2.07222,2.2801 2.07222,5.55 0,4.9919 1.31488,6.6915 5.17695,6.6915 4.51839,0 6.09278,3.4917 5.28243,11.7154 -0.81328,8.2536 -0.012,9.273 8.16069,10.382 3.01984,0.4098 6.62861,1.4907 8.01947,2.4021 2.28532,1.4974 2.383,1.8181 1.01428,3.3305 -0.83301,0.9205 -1.6584,3.6895 -1.83419,6.1532 -0.34215,4.7953 0.23422,4.3445 -8.81963,6.8976 -1.85024,0.5218 -2.46871,1.3436 -2.37961,3.1621 0.0662,1.3514 -0.52123,2.8309 -1.30544,3.2878 -0.7842,0.4569 -1.83974,1.9194 -2.34564,3.25 -0.5203,1.3685 -1.73193,2.4193 -2.78957,2.4193 -2.25117,0 -5.17974,3.0128 -5.17974,5.3287 0,1.8186 -0.27393,1.8646 -4,0.6713 z"
         style="fill:#c8beb7" />
      <path
         inkscape:connector-curvature="0"
         id="path7430"
         d="m 265.06569,387.0761 c -3.22229,-5.4984 -5.5239,-5.777 -8.46131,-1.0242 -2.57618,4.1683 -3.30847,4.2648 -7.58889,1 -4.11469,-3.1384 -6.44615,-3.1561 -9.34476,-0.071 -1.96983,2.0968 -2.62128,2.2749 -4.75861,1.3011 -1.94589,-0.8866 -2.36881,-1.6748 -1.97435,-3.6794 1.46511,-7.4456 2.68789,-10.0446 6.28004,-13.3485 3.1174,-2.8672 3.63919,-3.8248 2.63657,-4.8386 -0.6875,-0.6952 -1.25,-2.7713 -1.25,-4.6137 0,-3.6772 -2.45612,-9.2503 -4.07671,-9.2503 -1.50606,0 -3.92329,-6.4014 -3.92329,-10.3898 0,-2.7438 -0.97658,-4.4941 -4.75,-8.5129 -3.64294,-3.8798 -5.0996,-4.8339 -6.25,-4.0934 -2.78726,1.794 -5,1.1601 -5,-1.4325 0,-2.8679 -2.40433,-5.5714 -4.9548,-5.5714 -1.83922,0 -3.00618,-2.5894 -3.03155,-6.7269 -0.008,-1.2615 -1.09756,-2.9372 -2.51365,-3.8651 -2.60161,-1.7046 -3.31392,-4.7869 -1.38215,-5.9808 0.70681,-0.4369 0.89666,-2.3047 0.51632,-5.0796 -0.39901,-2.911 -0.0821,-5.6444 0.94117,-8.1181 1.87536,-4.5337 9.47624,-10.8592 14.92466,-12.4204 2.2,-0.6305 4.4275,-1.5204 4.95,-1.9777 1.66578,-1.4578 3.28557,-0.9163 7.98206,2.6686 2.52188,1.925 5.25635,3.5 6.07659,3.5 0.82024,0 1.49135,0.635 1.49135,1.4111 0,1.5253 5.50746,6.5889 7.16643,6.5889 0.55714,0 1.76012,0.8335 2.67328,1.8523 0.91316,1.0188 3.51542,2.3696 5.78279,3.0019 3.78275,1.0549 4.1761,1.4849 4.77284,5.2167 0.71624,4.4791 4.63162,8.9291 7.85633,8.9291 1.07779,0 3.30609,-1.133 4.95177,-2.5177 l 2.99215,-2.5178 3.437,3.0178 c 1.89035,1.6597 3.80947,3.0177 4.2647,3.0177 0.80341,0 6.90411,4.3669 10.25955,7.3438 1.15267,1.0226 1.50858,2.4872 1.16965,4.813 -0.26796,1.8388 -0.46622,5.3404 -0.44059,7.7814 0.0256,2.441 -0.42456,5.0059 -1.00042,5.6998 -0.57587,0.6939 -1.39143,5.0401 -1.81235,9.6583 -0.80655,8.849 -1.33436,10.3983 -4.26192,12.5104 -0.99617,0.7187 -1.81121,2.2343 -1.81121,3.368 0,1.9307 -2.36968,5.2944 -8.6331,12.2546 -1.60261,1.7809 -4.05344,3.1667 -6.25147,3.5349 l -3.61543,0.6056 0.3121,5.1177 c 0.17165,2.8147 -0.1405,5.3974 -0.69367,5.7393 -0.55317,0.3419 -2.19887,-1.4143 -3.65712,-3.9026 z"
         style="fill:#c8beb7" />
      <path
         inkscape:connector-curvature="0"
         id="path7428"
         d="m 291.99177,385.8642 c -1.87125,-0.3679 -2.09974,-1.0664 -2,-6.1138 0.10879,-5.5052 0.0193,-5.7092 -2.63739,-6.0149 -3.37215,-0.388 -3.47845,-1.4654 -0.38468,-3.899 1.30093,-1.0233 2.70265,-2.9685 3.11494,-4.3226 0.41228,-1.3541 1.55476,-3.362 2.53882,-4.462 2.34686,-2.6233 3.96841,-8.7659 3.97534,-15.0589 0.003,-2.7875 0.64391,-5.9304 1.42731,-7 0.96346,-1.3154 1.24917,-3.4023 0.88638,-6.4744 -0.40494,-3.4289 -0.14229,-4.8594 1.07827,-5.8724 2.14437,-1.7797 2.06082,-2.3537 -0.98973,-6.7999 -2.44117,-3.558 -2.56344,-4.2876 -1.96267,-11.7114 0.46586,-5.7568 1.10802,-8.2721 2.35335,-9.2183 2.44459,-1.8571 2.7736,-1.7562 7.14459,2.1928 l 3.93768,3.5574 8.44861,-0.6855 8.44862,-0.6855 4.72307,4.3536 4.72308,4.3535 7.14351,-3.7474 c 3.92893,-2.0611 7.67945,-3.7376 8.33449,-3.7255 4.07808,0.075 0.28019,6.3682 -6.58327,10.9085 -4.84421,3.2045 -7.05869,6.0825 -7.08547,9.2084 -0.0122,1.4273 -0.92224,3.4095 -2.02224,4.405 -1.1,0.9955 -2.00988,2.7527 -2.02196,3.905 -0.0121,1.1522 -0.91433,4.0617 -2.00501,6.4654 -1.09067,2.4037 -2.36777,6.8238 -2.838,9.8224 -0.90386,5.7638 -1.17536,6.0887 -12.07356,14.4491 -3.38615,2.5976 -4.77233,4.5765 -6.1211,8.7383 -1.77836,5.4873 -3.14545,7.0773 -6.10858,7.1045 -3.03908,0.028 -4.88848,1.2242 -6.39446,4.1365 -1.44182,2.7882 -2.43813,3.0978 -7.04994,2.1911 z"
         style="fill:#c8beb7" />
      <path
         inkscape:connector-curvature="0"
         id="path7426"
         d="m 89.354358,380.4686 c -0.982,-1.0755 -1.7751,-3.5624 -1.8073,-5.6667 -0.032,-2.0845 -1.261,-5.9707 -2.7673,-8.75 -2.1507,-3.9679 -3.3036,-5.0682 -5.5855,-5.3302 -1.6804,-0.193 -4.2159,-1.7515 -6.1008,-3.75 -3.4939,-3.7047 -6.0121,-4.2478 -9.048,-1.9516 -1.0676,0.8075 -3.3583,1.4825 -5.0904,1.5 -2.9647,0.03 -3.1793,-0.2173 -3.6606,-4.2182 -1.872,-15.5607 -4.9107,-18.6822 -12.9007,-13.2529 -2.0212,1.3735 -3.8726,2.161 -4.1143,1.75 -0.2417,-0.4109 -0.7646,-6.9544 -1.1621,-14.5411 l -0.7226,-13.794 -5.1318,-3.456 c -2.8226,-1.9008 -6.1828,-3.456 -7.4672,-3.456 -2.4541,0 -11.1914,-4.6448 -11.1914,-5.9495 0,-0.708 2.5842,-3.3464 9.25,-9.444 1.6131,-1.4756 2.75,-3.562 2.75,-5.0467 0,-2.0889 1.043,-3.0575 5.9715,-5.5454 3.2843,-1.6579 7.5593,-3.0144 9.5,-3.0144 5.5781,0 7.5285,-2.705 7.5285,-10.441 0,-3.5425 0.4207,-6.7009 0.9348,-7.0187 0.5142,-0.3178 2.1291,0.988 3.5888,2.9018 1.4597,1.9137 3.514,3.7524 4.5652,4.0861 1.4572,0.4625 1.9112,1.5461 1.9112,4.5615 0,3.2242 0.7391,4.7568 4,8.2945 3.8098,4.1331 4,4.648 4,10.8276 0,5.6713 0.3911,7.0279 3.1061,10.7759 l 3.1061,4.2878 7.2928,-0.6164 c 7.1355,-0.6032 7.3311,-0.5576 9.0633,2.1122 0.973599,1.5008 3.320999,4.5287 5.216299,6.7287 1.8954,2.2 5.1394,7.1374 7.209003,10.9719 5.9902,11.0986 8.3976,11.2914 12.7057,1.0176 4.3855,-10.4584 6.3007,-11.235 6.3007,-2.5546 0,7.4491 1.29909,11.0651 3.97527,11.0651 1.11361,0 2.02475,-0.45 2.02475,-1 0,-1.2413 3.67895,-1.3285 4.43506,-0.1051 0.87862,1.4217 -7.10171,12.6322 -9.89988,13.9071 -1.3944,0.6353 -2.5352,1.5288 -2.5352,1.9854 0,1.8898 3.06135,4.7704 7.63392,7.1834 3.58463,1.8916 4.93712,3.2211 5.13579,5.0485 0.97823,8.998 0.87709,8.8538 6.43745,9.1797 6.78545,0.3977 7.38775,2.3933 0.91019,3.0157 -3.42678,0.3293 -5.93792,1.298 -8.11638,3.131 -2.30809,1.9422 -4.27407,2.6553 -7.32768,2.658 -2.40469,0 -5.56079,0.8498 -7.44749,2 -2.7637,1.6851 -4.9462,1.9833 -14,1.913 -9.230003,-0.072 -10.969803,-0.3506 -12.475802,-2 z"
         style="fill:#c8beb7" />
      <path
         inkscape:connector-curvature="0"
         id="path7424"
         d="m 576.74788,379.308 c -2.19539,-1.0777 -2.31209,-1.5493 -1.70693,-6.8982 0.57117,-5.0485 0.41426,-5.8674 -1.30008,-6.7849 -2.6043,-1.3937 -20.58483,-3.3531 -23.96269,-2.6112 -2.13728,0.4695 -2.8795,0.1289 -3.6759,-1.6868 -0.66812,-1.5232 -2.37727,-2.6079 -5.17186,-3.2823 -5.47092,-1.3203 -5.89186,-1.8919 -2.85725,-3.8803 1.39217,-0.9122 2.53121,-2.339 2.53121,-3.1706 0,-2.296 2.81212,-6.382 8.39064,-12.1918 3.65285,-3.8043 5.78807,-5.25 7.75377,-5.25 2.54859,0 3.32353,-0.5238 6.71056,-4.5355 1.02126,-1.2096 2.30999,-1.4435 5.23272,-0.9497 3.47203,0.5866 3.99703,0.3934 5.01782,-1.847 0.95495,-2.0959 1.64975,-2.4195 4.27889,-1.9928 2.37594,0.3855 3.61788,-0.02 5.1099,-1.6687 l 1.97107,-2.178 -3.48269,-2.8505 -3.48268,-2.8506 1.86836,-3.491 1.86836,-3.491 3.38164,1.6126 c 3.48158,1.6603 4.12202,2.6666 2.38164,3.7422 -0.55,0.3399 -1,1.879 -1,3.4202 0,3.5704 6.32152,10.1397 14.82349,15.4047 3.39708,2.1037 6.17651,4.3295 6.17651,4.9462 0,2.1806 -5.32817,8.7732 -7.53907,9.3281 -4.38299,1.1 -7.17463,5.4324 -8.43709,13.0937 -1.05936,6.4287 -1.55864,7.4776 -4.69991,9.8736 -3.51612,2.6819 -3.7529,3.6866 -2.2232,9.4335 0.50939,1.9137 -4.60841,2.4 -7.95723,0.7561 z"
         style="fill:#c8beb7" />
      <path
         inkscape:connector-curvature="0"
         id="path7422"
         d="m 616.85438,357.6468 c -0.9625,-1.0479 -3.26506,-3.9729 -5.11679,-6.5 -1.85174,-2.5272 -3.76424,-4.5949 -4.25,-4.5949 -1.45086,0 -0.99954,-3.6586 0.61679,-5 0.825,-0.6847 1.5,-2.689 1.5,-4.454 0,-3.2935 -1.69489,-4.7699 -12.77271,-11.1262 -1.8,-1.0328 -4.44384,-3.5678 -5.87521,-5.6333 -2.47349,-3.5692 -2.52194,-3.8783 -0.97729,-6.2357 2.33994,-3.5712 2.08451,-4.2758 -2.37479,-6.5508 -4.42194,-2.2559 -4.59269,-2.6323 -2.4682,-5.4411 0.80751,-1.0676 1.4682,-3.2881 1.4682,-4.9343 0,-5.339 3.86742,-11.3427 12.08873,-18.7661 7.77447,-7.02 7.91127,-7.2258 7.91127,-11.9064 0,-4.0126 -0.57229,-5.4472 -3.63305,-9.1075 -4.05315,-4.847 -6.0153,-8.5296 -5.0559,-9.489 0.34976,-0.3497 3.15286,1.3397 6.22911,3.7542 9.87604,7.7519 11.4382,8.7107 15.23674,9.3525 4.09272,0.6915 8.61519,-1.0281 11.71638,-4.4549 0.99918,-1.1041 2.24916,-2.0074 2.77773,-2.0074 0.52857,0 3.04633,-1.5146 5.59501,-3.3658 2.54869,-1.8512 6.43398,-3.9398 8.63398,-4.6414 2.2,-0.7015 5.63976,-2.5619 7.6439,-4.1342 2.00415,-1.5722 4.08655,-2.8586 4.62756,-2.8586 0.54101,0 1.49595,-0.6173 2.1221,-1.3717 1.71947,-2.0719 9.16114,-2.9493 24.00943,-2.8309 l 13.40299,0.1068 3.14462,3.0479 c 3.81953,3.7021 5.97944,3.8474 8.14136,0.5479 1.74662,-2.6657 4.40804,-3.3747 4.40804,-1.1743 0,0.7291 1.09961,2.3587 2.44357,3.6213 2.28914,2.1505 2.34561,2.4451 0.89353,4.6613 -1.42882,2.1806 -1.3853,2.6448 0.55643,5.9358 1.15856,1.9636 2.10647,4.5893 2.10647,5.8349 0,6.6288 6.28489,16.621 10.45428,16.621 0.71546,0 1.86103,0.675 2.54572,1.5 1.07901,1.3001 0.56235,1.5 -3.87756,1.5 -8.57988,0 -11.21284,4.4716 -6.97186,11.8405 l 2.15058,3.7367 -3.74937,5.6469 c -3.3289,5.0137 -3.67236,6.1028 -3.06268,9.7114 0.73471,4.3487 0.14483,4.8586 -2.93024,2.5327 -2.5445,-1.9246 -4.70939,-1.853 -8.52309,0.2818 -2.97742,1.6667 -3.17412,1.6667 -4.13073,0 -1.1148,-1.9423 -4.44423,-2.2559 -8.31714,-0.7834 -1.9127,0.7272 -3.26497,0.5518 -5.46044,-0.7082 -3.21815,-1.847 -3.57248,-1.7428 -12.12747,3.566 -3.64354,2.261 -4.5609,3.4167 -4.81997,6.0726 -0.22249,2.281 0.23444,3.6896 1.5,4.6243 2.01447,1.4877 1.11838,3.0481 -2.08555,3.6316 -1.04804,0.1909 -2.03062,1.202 -2.18352,2.247 -0.56137,3.8366 -3.94487,4.5412 -7.68383,1.6001 -4.25809,-3.3494 -10.59241,-2.0705 -14.3559,2.8986 -0.99268,1.3106 -1.44693,1.2818 -3.76791,-0.2389 -2.6073,-1.7084 -2.69326,-1.6841 -7.12124,2.0173 -4.0436,3.38 -4.48208,4.1705 -4.48208,8.0802 0,3.2679 -0.60367,4.9374 -2.45455,6.7882 -1.35,1.3501 -2.91344,2.4546 -3.47432,2.4546 -0.56087,0 -1.71788,1.35 -2.57113,3 -1.796,3.4731 -4.66716,3.9067 -7.25,1.0949 z"
         style="fill:#c8beb7" />
      <path
         inkscape:connector-curvature="0"
         id="path7420"
         d="m 529.10438,355.5519 c -1.1,-0.4727 -3.65,-0.8911 -5.66667,-0.9297 -2.01666,-0.039 -3.87482,-0.6328 -4.12924,-1.3203 -0.25442,-0.6875 -0.26767,-4.175 -0.0294,-7.75 0.5252,-7.8817 -0.90851,-11.1591 -5.27206,-12.0515 -4.80792,-0.9833 -5.52703,-1.7682 -4.86298,-5.3079 0.46837,-2.4966 0.12597,-3.6333 -1.55187,-5.1517 -4.8072,-4.3505 -6.41973,-14.1259 -3.48773,-21.1431 0.825,-1.9746 1.5,-4.6051 1.5,-5.8458 0,-3.5493 -2.92522,-9.663 -6.54164,-13.6721 -2.40277,-2.6637 -3.48748,-4.998 -3.94975,-8.5 -1.14043,-8.6396 -1.57905,-10.0474 -4.62852,-14.8559 -4.11716,-6.4921 -3.302,-7.0334 10.1027,-6.7083 10.14098,0.2459 10.91681,0.128 11.51286,-1.75 0.35152,-1.1075 1.3288,-2.0137 2.17174,-2.0137 1.70844,0 7.73498,-5.6665 8.50826,-8 0.41256,-1.2449 0.90748,-1.2927 2.91071,-0.2806 1.3275,0.6707 3.97096,1.3457 5.87434,1.5 2.47395,0.2006 3.61447,0.8509 4,2.2806 0.29662,1.1 2.31525,3.9288 4.48586,6.2862 l 3.94656,4.2862 8.55344,-0.6632 c 9.59734,-0.7441 11.5349,-1.8316 12.50836,-7.0206 0.52428,-2.7946 0.24679,-3.8165 -1.40791,-5.1846 -1.81582,-1.5014 -1.93555,-2.1499 -1.00694,-5.454 0.57967,-2.0625 1.48279,-3.75 2.00693,-3.75 0.52415,0 0.953,-0.675 0.953,-1.5 0,-1.9543 2.40107,-1.9266 4.03874,0.047 3.12252,3.7624 7.54389,5.9398 12.24794,6.0318 3.09008,0.06 5.73349,0.7927 7.42798,2.0578 3.19075,2.3823 3.94266,3.664 5.2642,8.974 0.57289,2.3018 2.78244,6.1091 5.02205,8.6534 3.54029,4.022 3.99909,5.1239 3.99909,9.6046 0,3.7875 -0.44044,5.3033 -1.75,6.0225 -2.24311,1.2321 -15.65771,14.6956 -15.16105,15.2164 0.20607,0.216 -0.40464,1.5055 -1.35714,2.8653 -0.9525,1.3599 -1.73181,4.0149 -1.73181,5.9 0,2.1757 -1.46086,5.9612 -4,10.3653 -2.2,3.8159 -4.00406,7.4609 -4.00901,8.1001 -0.005,0.6391 1.45754,2.3875 3.25,3.8852 l 3.25901,2.7231 -4.68261,0.027 c -3.8148,0.022 -4.80207,0.4033 -5.32718,2.0578 -0.54088,1.7041 -1.19441,1.9276 -4.06298,1.3895 -2.92729,-0.5492 -3.81477,-0.217 -6.177,2.3118 -1.56082,1.6708 -4.29279,3.2408 -6.29208,3.6159 -4.3594,0.8178 -12.52156,8.9051 -16.30151,16.1519 -2.85963,5.4824 -6.00756,9.5393 -7.31693,9.4297 -0.46189,-0.039 -1.73976,-0.457 -2.83976,-0.9297 z"
         style="fill:#c8beb7" />
      <path
         inkscape:connector-curvature="0"
         id="path7418"
         d="m 389.60438,327.6934 c 0,-3.5485 -0.33978,-4.1887 -2.5128,-4.7341 -1.38204,-0.3468 -3.85704,-0.4333 -5.5,-0.1922 -2.71517,0.3985 -2.9872,0.181 -2.9872,-2.3884 0,-1.5547 -0.54108,-2.8268 -1.20239,-2.8268 -0.66132,0 -2.68719,-1.4391 -4.50195,-3.198 -2.56334,-2.4845 -3.56687,-2.9308 -4.49761,-2 -3.25968,3.2596 -11.79805,-1.4331 -11.79805,-6.4843 0,-1.14 -0.675,-2.633 -1.5,-3.3177 -2.28838,-1.8992 -1.85541,-3.3575 2.5656,-8.6411 5.25642,-6.2821 7.00919,-9.6199 5.95089,-11.3322 -0.4606,-0.7453 -0.59221,-2.8664 -0.29246,-4.7135 0.35314,-2.1762 0.0322,-3.9665 -0.91183,-5.0858 -0.80126,-0.9501 -2.05689,-3.6341 -2.79031,-5.9645 -0.73341,-2.3304 -2.33058,-4.8904 -3.54927,-5.6889 -1.22411,-0.802 -2.82312,-3.5087 -3.57279,-6.0477 -0.76572,-2.5933 -2.34669,-5.2443 -3.62841,-6.0841 -1.84557,-1.2093 -2.27142,-2.3984 -2.27142,-6.3428 0,-3.0952 -0.54362,-5.3057 -1.5,-6.0994 -1.02199,-0.8482 -1.5,-3.1179 -1.5,-7.1224 0,-5.1257 0.24519,-5.8776 1.91659,-5.8776 1.05413,0 2.76879,-1.1699 3.81037,-2.5997 1.47804,-2.0291 2.92844,-2.6813 6.60699,-2.9711 8.66263,-0.6826 14.06582,-7.5875 13.51942,-17.2768 -0.25954,-4.6024 -0.0433,-5.5806 1.16394,-5.2657 5.10782,1.3321 5.69995,1.1698 9.32926,-2.5568 2.05147,-2.1064 3.98954,-4.9549 4.30682,-6.3299 0.31727,-1.375 1.87939,-4.8634 3.47137,-7.7519 2.48361,-4.5064 2.98601,-6.7474 3.53906,-15.7863 0.3545,-5.7939 0.98125,-10.7424 1.39278,-10.9968 0.41152,-0.2543 2.81714,1.6361 5.34581,4.2011 3.25947,3.3061 4.59759,5.4787 4.59759,7.4647 0,1.5408 0.71832,4.3077 1.59627,6.1488 1.55346,3.2576 1.51685,3.4726 -1.36546,8.0175 -1.62894,2.5686 -3.51277,6.6383 -4.18627,9.0438 -1.25554,4.4844 -0.43701,7.6089 4.3641,16.6591 0.72944,1.375 1.13357,3.032 0.89807,3.6822 -0.61123,1.6876 2.40345,7.2762 5.93143,10.9956 l 3.01423,3.1778 -2.12619,3.4402 c -1.1694,1.8922 -2.12618,4.3746 -2.12618,5.5165 0,3.5419 4.10263,6.7951 11,8.7224 7.91618,2.2121 8.46208,2.6096 12.73122,9.2699 2.9239,4.5617 7.12925,8.2833 10.76878,9.53 0.59528,0.2039 0.32565,1.7671 -0.66622,3.8622 -1.14998,2.4292 -2.54421,3.7101 -4.5,4.1343 -3.65955,0.7937 -4.31876,1.3449 -7.52131,6.2889 -1.99396,3.0782 -4.77309,5.2562 -10.99064,8.6131 -10.03649,5.4189 -10.87455,7.4465 -5.55827,13.4479 3.90043,4.403 6.73644,8.42 6.73644,9.5415 0,1.135 -5.41763,0.95 -8.6849,-0.2965 -2.04764,-0.7812 -3.9056,-0.7528 -6.8151,0.1042 -7.62632,2.2461 -8.36021,2.7712 -9.58432,6.8569 -1.05991,3.5377 -0.95495,4.3812 0.94607,7.6032 1.17604,1.9932 2.13825,4.0205 2.13825,4.5051 0,0.9481 -4.39031,5.7431 -7.25,7.9183 -1.59862,1.216 -1.75,0.9762 -1.75,-2.7722 z"
         style="fill:#c8beb7" />
      <path
         inkscape:connector-curvature="0"
         id="path7416"
         d="m 123.22116,328.9956 c -0.33923,-0.884 -0.61678,-4.7205 -0.61678,-8.5255 0,-7.3973 -0.46257,-7.9289 -4.91962,-5.6535 -1.5845,0.809 -3.3141,3.4786 -5.0116,7.7353 -1.5171,3.8043 -3.1912,6.5 -4.0368,6.5 -0.7946,0 -3.2643,-3.2047 -5.4883,-7.1215 -2.224,-3.9168 -5.497803,-8.7604 -7.275003,-10.7635 -1.7772,-2.0031 -3.9564,-5.0442 -4.8427,-6.758 l -1.611299,-3.1161 -7.1984,0.6523 c -7.0211,0.6363 -7.2674,0.5804 -9.9948,-2.2664 -2.4509,-2.5582 -2.8644,-3.9121 -3.3476,-10.961 -0.5134,-7.4911 -0.7816,-8.2655 -3.9125,-11.3002 -3.8724,-3.7532 -4.455,-8.3661 -1.7434,-13.8017 1.2464,-2.4984 1.5202,-5.2913 1.1919,-12.1582 -0.4058,-8.4866 -0.5855,-9.079 -3.7431,-12.3368 -2.8733,-2.9645 -3.2307,-3.8817 -2.6723,-6.8582 0.3546,-1.8899 1.5333,-4.2404 2.6195,-5.2233 2.3055,-2.0865 3.9725,-7.421 3.9804,-12.7374 0,-2.0625 0.4382,-3.75 0.967,-3.75 0.5287,0 2.7147,-1.6875 4.8578,-3.75 2.1431,-2.0625 5.423,-4.6561 7.2887,-5.7635 2.2703,-1.3476 3.4944,-2.8943 3.7015,-4.6768 0.425,-3.6594 2.3835,-4.995 6.7803,-4.6242 3.203199,0.2701 4.216099,1.0197 7.180899,5.3145 2.9683,4.2996 3.8564,4.956 6.340603,4.686 1.5888,-0.1727 2.8888,0.1102 2.8888,0.6287 0,1.6575 5.7399,3.4014 8.9063,2.7059 2.9803,-0.6546 3.0356,-0.5955 2.897,3.0926 -0.1222,3.2509 0.4231,4.2462 4.0277,7.3507 2.50118,2.1542 4.16902,4.4562 4.16902,5.7543 0,1.1901 0.45,2.4419 1,2.7818 0.55,0.3399 1,2.4694 1,4.7322 0,3.4593 1.3808,6.2754 8.67437,17.691 4.7709,7.4672 9.2709,14.2872 10,15.1555 1.95541,2.3288 1.68337,2.7636 -2.18307,3.4889 -3.87101,0.7262 -8.4913,3.8871 -8.4913,5.8092 0,0.6774 1.35,3.3604 3,5.9622 1.78588,2.816 3,6.0783 3,8.0609 0,1.8317 0.9,4.4746 2,5.873 1.1,1.3984 2,3.4255 2,4.5047 0,1.5867 -4.87532,6.5577 -9.06737,9.2452 -2.78764,1.7872 -3.74222,6.482 -3.19225,15.7002 l 0.56698,9.5034 -3.19464,-0.7016 c -1.91745,-0.4212 -3.73126,-0.2563 -4.5369,0.4123 -1.01819,0.845 -1.49116,0.7259 -1.95904,-0.4934 z"
         style="fill:#c8beb7" />
      <path
         inkscape:connector-curvature="0"
         id="path7414"
         d="m 292.54372,313.9788 c -0.71805,-0.8652 -2.91065,-2.3923 -4.87244,-3.3936 -1.9618,-1.0012 -4.42414,-2.7684 -5.47189,-3.9269 -2.24534,-2.4827 -5.82332,-2.7412 -7.64032,-0.5518 -2.60719,3.1415 -4.60455,3.5087 -7.34782,1.3508 -2.00904,-1.5803 -2.60687,-2.9405 -2.60687,-5.9312 0,-3.6392 -0.28069,-4.0048 -4.51181,-5.8764 -2.4815,-1.0977 -4.77964,-2.6937 -5.10699,-3.5468 -0.32735,-0.853 -1.61135,-1.551 -2.85333,-1.551 -2.84174,0 -7.39484,-3.5199 -8.5778,-6.6313 -0.61908,-1.6283 -1.68971,-2.3687 -3.42532,-2.3687 -1.38861,0 -2.52475,-0.4424 -2.52475,-0.9831 0,-0.5408 -2.26627,-2.1316 -5.03617,-3.5352 -4.82542,-2.4453 -5.15372,-2.4826 -7.84545,-0.8926 -2.52314,1.4905 -3.05421,1.5061 -5.21383,0.1533 -1.3225,-0.8284 -4.4245,-1.8069 -6.89332,-2.1743 -6.55208,-0.9752 -9.01123,-3.7157 -9.01123,-10.0424 0,-5.6382 1.19059,-7.5257 4.7471,-7.5257 3.21302,0 16.77736,-7.58 19.29743,-10.7837 1.65976,-2.1101 2.01273,-3.8734 1.8552,-9.2681 -0.10699,-3.6642 0.12336,-7.1765 0.51189,-7.8052 0.38853,-0.6287 2.81736,-1.1491 5.3974,-1.1567 6.82011,-0.02 8.8842,-0.8315 10.20136,-4.0114 1.15044,-2.7774 6.19276,-5.9749 9.42213,-5.9749 0.89664,0 1.9061,-0.7188 2.24325,-1.5974 0.33714,-0.8786 2.59285,-2.4461 5.01268,-3.4834 3.07368,-1.3175 4.8451,-2.8704 5.87752,-5.1525 0.8128,-1.7967 2.98052,-5.2917 4.81715,-7.7667 3.56589,-4.8053 3.98247,-4.8959 11.11689,-2.4182 5.2239,1.8141 8.42341,1.7814 9.14293,-0.094 0.90628,-2.3617 -4.29086,-11.9417 -9.67328,-17.8309 -3.66467,-4.0097 -4.59806,-5.6288 -3.73982,-6.487 0.85824,-0.8582 0.56739,-1.7571 -1.16538,-3.6016 -3.37813,-3.5958 -2.23058,-6.8397 3.16891,-8.9579 5.9899,-2.3498 9.75367,-5.7259 10.81823,-9.7041 0.50139,-1.8736 1.47499,-5.5561 2.16356,-8.1832 1.37729,-5.255 1.06724,-5.1708 11.53485,-3.13 2.99333,0.5836 3.25,0.429 3.25,-1.9568 0,-1.6735 0.90302,-3.1822 2.55111,-4.262 3.06303,-2.007 5.44889,-6.3198 5.44889,-9.8497 0,-1.8145 0.72589,-2.8504 2.45912,-3.5093 2.50854,-0.9538 6.51523,-7.4921 6.57268,-10.7257 0.0916,-5.1528 5.75796,-6.819 11.37782,-3.3457 2.2463,1.3882 3.47794,3.1863 4.30774,6.2889 1.79548,6.7131 4.81911,9.3196 11.75701,10.135 3.62831,0.4264 6.26061,0.2969 6.89678,-0.3392 0.56587,-0.5659 2.93353,-1.0289 5.26146,-1.0289 3.3188,0 4.36629,-0.4212 4.85179,-1.9508 0.65293,-2.0572 -1.05573,-9.7863 -2.5735,-11.6412 -1.40059,-1.7117 0.0531,-2.3815 2.6251,-1.2096 3.3002,1.5036 5.4588,0.3574 5.49331,-2.917 0.0174,-1.6514 1.23046,-4.101701 2.98591,-6.031401 2.66575,-2.9303 3.50933,-3.25 8.57572,-3.25 l 5.61913,0 -0.47014,3.75 c -0.45551,3.633301 -2.0963,8.921801 -3.87397,12.486401 -1.28279,2.5723 -1.08283,3.6689 1.20448,6.6055 2.58156,3.3143 8.92956,14.1212 8.92956,15.2017 0,0.4407 -1.50883,1.2993 -3.35295,1.9079 -6.8474,2.2598 -7.30063,3.6111 -7.45178,22.2166 l -0.13542,16.6681 -3.02992,4.7777 c -1.66646,2.6277 -3.02993,5.712 -3.02993,6.854 0,1.142 -1.41678,3.7952 -3.14841,5.896 -2.55743,3.1026 -3.63673,3.7217 -5.75,3.2985 -7.04957,-1.412 -6.5927,-1.8103 -6.69768,5.8396 -0.1571,11.4484 -4.00087,16.498 -12.55832,16.498 -4.06744,0 -4.99411,0.3998 -6.79798,2.9331 -1.14871,1.6133 -3.09185,3.0758 -4.31809,3.25 -2.05693,0.2924 -2.22952,0.8445 -2.22952,7.1319 0,5.2181 0.41006,7.1876 1.75,8.405 1.24828,1.1341 1.75,3.1158 1.75,6.9119 0,4.5733 0.3517,5.5524 2.5,6.9601 1.375,0.9009 2.5,2.2792 2.5,3.0628 0,2.1356 3.89216,9.3452 5.04507,9.3452 0.55244,0 1.47236,1.2307 2.04427,2.735 0.57191,1.5042 1.73571,4.2014 2.58622,5.9937 0.85051,1.7924 1.642,5.3991 1.75886,8.015 0.22049,4.9359 -0.81034,6.962 -7.65252,15.0411 -1.53004,1.8066 -2.7892,4.0566 -2.79811,5 -0.0106,1.1164 -2.43636,2.92 -6.94814,5.166 l -6.93192,3.4508 -2.06262,-2.6222 c -1.13444,-1.4422 -4.06374,-3.3864 -6.50957,-4.3205 -4.18945,-1.6 -5.95285,-1.5875 -12.74463,0.09 -2.2028,0.5441 -3.5062,-0.01 -6.92999,-2.9394 -2.99484,-2.5635 -5.17239,-3.6095 -7.51387,-3.6095 -4.75666,0 -6.25903,2.8654 -6.4414,12.2856 -0.0822,4.2429 -0.26352,7.7144 -0.40306,7.7144 -0.13954,0 -0.8412,-0.7079 -1.55925,-1.5731 z"
         style="fill:#c8beb7" />
      <path
         inkscape:connector-curvature="0"
         id="path7412"
         d="m 199.18916,303.6891 c -0.29329,-0.4746 -2.56985,-1.4331 -5.05902,-2.13 -2.48917,-0.6969 -4.52576,-1.6522 -4.52576,-2.1228 0,-0.4706 1.54869,-3.7749 3.44154,-7.3429 3.73411,-7.0387 3.91994,-11.6964 0.64872,-16.2601 -2.16125,-3.0151 -3.32657,-2.8511 -8.6582,1.2186 -2.52189,1.925 -5.00078,3.5 -5.50866,3.5 -1.63687,0 -0.98722,-2.1354 1.5766,-5.1824 1.8186,-2.1612 2.5,-4.1433 2.5,-7.2719 0,-2.5687 0.59346,-4.7933 1.47354,-5.5237 0.81044,-0.6727 1.73414,-2.8652 2.05265,-4.8725 0.31851,-2.0072 1.00354,-5.5288 1.52229,-7.8257 0.76103,-3.3698 0.60603,-4.7654 -0.80266,-7.2271 -1.47246,-2.5731 -1.54265,-3.3773 -0.44828,-5.1363 1.4631,-2.3516 0.82828,-5.5063 -1.27008,-6.3115 -1.12117,-0.4302 -1.17505,-1.1223 -0.27339,-3.511 0.91875,-2.4341 0.78827,-3.7176 -0.7174,-7.0566 -1.01223,-2.2447 -2.18168,-4.0813 -2.59878,-4.0813 -0.41709,0 -1.05901,-3.9375 -1.42648,-8.75 -0.86375,-11.3119 -0.76591,-11.0404 -5.74999,-15.9582 -6.90107,-6.8093 -7.10233,-6.9401 -11.60945,-7.5446 -2.37443,-0.3185 -4.54443,-0.8063 -4.82222,-1.0841 -0.27779,-0.2778 -0.75182,-3.2262 -1.0534,-6.5521 -0.42886,-4.7295 -0.16986,-6.6246 1.18882,-8.6982 1.14597,-1.749 1.53684,-3.6527 1.14855,-5.5942 -0.33608,-1.6804 0.0495,-4.4702 0.89884,-6.5029 2.10346,-5.0343 1.92169,-5.9904 -2.01256,-10.5867 -1.925,-2.249 -3.5,-4.6576 -3.5,-5.3525 0,-0.6949 -1.35,-2.0609 -3,-3.0356 -3.51774,-2.0779 -3.7323,-3.5945 -1,-7.068 1.1,-1.3984 2,-3.3268 2,-4.2853 0,-0.9585 0.70467,-2.3275 1.56594,-3.0423 2.05924,-1.709 4.43406,-6.3683 4.43406,-8.6995 0,-2.1949 5.32465,-7.373 9.33154,-9.0747 2.18797,-0.9292 3.77897,-0.9345 7,-0.023 5.54443,1.5685 6.56777,2.6514 7.46343,7.898 0.56231,3.294 1.26588,4.5285 2.73123,4.7926 3.54098,0.6381 3.82441,1.9562 1.11346,5.178 -1.45181,1.7253 -2.63966,3.9458 -2.63966,4.9344 0,0.9885 -1.10713,3.7781 -2.46029,6.1992 -1.82163,3.2593 -2.5355,6.2123 -2.75,11.376 l -0.28971,6.974 5.74095,0.5112 c 5.18547,0.4617 6.05114,0.8875 8.94671,4.4003 4.73798,5.748 7.41532,9.9025 9.67813,15.018 1.63454,3.6952 2.50767,4.5705 4.55893,4.5705 3.17247,0 4.60744,-4.1535 2.34591,-6.7903 -0.80653,-0.9403 -1.77458,-2.253 -2.15122,-2.9171 -1.14046,-2.0108 5.06356,-4.4228 12.90055,-5.0156 l 7.28695,-0.5511 1.84655,3.3871 c 1.01559,1.8628 2.07154,5.1631 2.34654,7.3339 0.44541,3.5159 1.01863,4.2131 5.25,6.3851 2.6125,1.341 4.75,2.999 4.75,3.6844 0,0.6854 -1.60295,2.4688 -3.56211,3.9632 -3.80713,2.9038 -5.74727,6.5506 -4.79931,9.021 0.32037,0.8348 2.29395,2.5385 4.38575,3.7859 3.61043,2.153 15.01643,13.988 14.93943,15.5013 -0.0199,0.3917 -1.93243,1.6122 -4.25,2.7122 -2.40569,1.1418 -4.77353,3.18 -5.51833,4.75 -1.1817,2.491 -1.80471,2.75 -6.61514,2.75 -3.85837,0 -6.03109,0.5668 -7.94543,2.0726 -2.42665,1.9088 -2.63486,2.6633 -2.63486,9.5477 0,6.7741 -0.24492,7.7022 -2.61149,9.8955 -1.43632,1.3311 -3.57382,2.7186 -4.75,3.0834 -1.17618,0.3648 -3.26351,1.4418 -4.63851,2.3935 -1.375,0.9516 -4.3,2.0578 -6.5,2.4582 -2.2,0.4005 -4.5625,1.1929 -5.25,1.761 -1.53037,1.2647 -1.69482,13.0884 -0.22036,15.8435 1.33266,2.4901 6.11028,4.9404 9.6707,4.9599 5.75257,0.032 5.58564,1.4417 -0.75335,6.3644 -6.90354,5.361 -8.94699,9.1497 -8.94699,16.5882 0,3.7147 -0.37724,5.0321 -1.44098,5.0321 -0.79254,0 -1.68095,-0.3883 -1.97424,-0.8628 z"
         style="fill:#c8beb7" />
      <path
         inkscape:connector-curvature="0"
         id="path7410"
         d="m 145.99124,300.0004 c 1.8391,-4.7577 1.76133,-7.0044 -0.30726,-8.8765 -1.34574,-1.2178 -2.0796,-3.1076 -2.0796,-5.3553 0,-2.0534 -1.2693,-5.6918 -3.105,-8.9002 -2.98259,-5.2131 -3.03561,-5.5036 -1.34501,-7.3717 0.96799,-1.0697 2.84482,-1.9448 4.17074,-1.9448 5.32679,0 8.23934,-4.1284 4.87965,-6.9167 -0.76979,-0.6389 -3.77927,-4.8565 -6.68773,-9.3724 -2.90847,-4.516 -7.01205,-10.8623 -9.11907,-14.1028 -3.1018,-4.7705 -3.71768,-6.4957 -3.23584,-9.0642 0.41853,-2.2309 0.12736,-3.5604 -0.98132,-4.4805 -0.86703,-0.7195 -1.57642,-2.36 -1.57642,-3.6455 0,-1.4433 -1.52991,-3.7528 -4,-6.0382 -3.98022,-3.6827 -5.28542,-7.7804 -2.75002,-8.6337 0.9745,-0.328 0.9475,-0.7872 -0.1224,-2.0834 -1.5089,-1.8279 -5.6514,-2.2421 -6.6276,-0.6626 -1.0329,1.6713 -3.1884,1.1331 -6.4484,-1.61 -1.7391,-1.4634 -3.8796,-2.4067 -4.8721,-2.1472 -1.1967,0.313 -2.628603,-0.7313 -4.419803,-3.2231 l -2.6496,-3.6861 5.195,-3.4168 c 4.129103,-2.7158 5.509803,-4.34 6.729803,-7.9168 0.8442,-2.475 2.0194,-5.4 2.6117,-6.5 0.5922,-1.1 1.3575,-3.1776 1.7007,-4.6168 0.4911,-2.0594 1.3916,-2.7414 4.2276,-3.2016 1.982,-0.3217 4.2384,-1.1117 5.0143,-1.7556 1.85957,-1.5433 1.80542,-6.3536 -0.089,-7.926 -2.2398,-1.8589 -1.8593,-3.3807 2.00005,-8 1.925,-2.3041 3.5,-4.7945 3.5,-5.5342 0,-0.8325 1.42921,-1.4634 3.75,-1.6554 3.23947,-0.2681 3.87712,-0.7417 4.68375,-3.4785 0.87678,-2.9748 1.25609,-3.1884 6.21637,-3.5 5.00624,-0.3145 5.49453,-0.1226 9.33304,3.6681 2.22773,2.2 5.45932,5.7101 7.1813,7.8002 3.05547,3.7087 3.1039,3.9255 2.0106,9 -2.00675,9.3143 -2.38264,12.0742 -2.85309,20.9476 -0.46169,8.7081 -0.45183,8.7523 2.17222,9.75 1.4498,0.5512 3.6642,1.0022 4.92087,1.0022 3.07732,0 9.87287,5.0582 13.02233,9.6931 2.23175,3.2843 2.56261,4.8228 2.56261,11.9166 0,6.1845 0.37825,8.4593 1.57121,9.4494 0.86416,0.7172 2.15041,2.6848 2.85832,4.3724 1.06109,2.5297 1.04793,3.5439 -0.075,5.7761 -1.23166,2.4483 -1.15682,2.8987 0.78173,4.7048 1.9083,1.7778 2.00816,2.3246 0.90912,4.9779 -1.04918,2.533 -0.96843,3.4315 0.53753,5.9808 1.51606,2.5665 1.602,3.5682 0.59462,6.9305 -0.64767,2.1618 -1.17758,4.8799 -1.17758,6.0403 0,1.1604 -0.89832,3.5831 -1.99626,5.3839 -1.09795,1.8008 -2.00795,4.8492 -2.02224,6.7742 -0.0143,1.925 -0.90596,4.625 -1.9815,6 -1.07554,1.375 -1.96553,2.9543 -1.97776,3.5095 -0.0122,0.5552 -0.88118,1.5458 -1.93099,2.2014 -1.04981,0.6557 -2.96208,3.0662 -4.24949,5.3568 l -2.34073,4.1648 -5.81601,-0.5273 c -4.82142,-0.4372 -5.91814,-0.2434 -6.41324,1.1337 -1.09729,3.052 -4.3196,7.059 -7.49472,9.3199 -2.92604,2.0835 -3.09132,2.1035 -2.3902,0.2897 z"
         style="fill:#c8beb7" />
      <path
         inkscape:connector-curvature="0"
         id="path7408"
         d="m 460.6147,257.0669 c -1.69717,-2.4668 -3.93921,-4.9418 -4.9823,-5.5 -3.01892,-1.6157 -7.54485,-1.1829 -10.30089,0.985 -1.39842,1.1 -2.92161,1.985 -3.38486,1.9667 -1.63326,-0.065 -4.88295,-3.5313 -8.50986,-9.0784 -3.46933,-5.3061 -4.06394,-5.7351 -11,-7.9376 -7.16638,-2.2757 -11.87351,-5.2198 -11.79146,-7.375 0.0225,-0.5916 1.32875,-2.8757 2.90272,-5.0757 l 2.86177,-4 -4.90272,-5.1901 c -3.80319,-4.0262 -4.90985,-5.9325 -4.93452,-8.5 -0.0175,-1.8205 -0.6925,-4.1834 -1.5,-5.251 -0.80751,-1.0676 -1.4682,-2.948 -1.4682,-4.1786 0,-1.2306 -0.675,-2.9124 -1.5,-3.7374 -0.825,-0.825 -1.4956,-2.5447 -1.49023,-3.8215 0.0114,-2.6997 4.38533,-12.4955 6.74234,-15.1 1.49307,-1.6498 1.45001,-2.1257 -0.56831,-6.28 -1.20109,-2.4722 -2.1838,-5.7713 -2.1838,-7.3313 0,-2.1102 -1.26925,-4.0236 -4.95716,-7.4733 -2.72644,-2.5502 -5.37184,-4.6368 -5.87868,-4.6368 -1.57214,0 -3.42522,-5.8237 -2.73197,-8.5858 0.48804,-1.9445 1.94263,-3.1671 5.61328,-4.7179 4.17744,-1.7649 4.95453,-2.5115 4.95453,-4.7599 0,-1.4667 -0.81785,-3.7399 -1.81745,-5.0515 -0.9996,-1.3117 -2.39072,-3.8149 -3.09138,-5.5626 -0.70065,-1.7477 -2.13905,-3.9606 -3.19643,-4.9176 -2.24086,-2.0279 -1.83142,-6.0329 1.35262,-13.231 1.06902,-2.4167 1.7381,-5.469401 1.48683,-6.783801 -0.51985,-2.7195 0.4359,-3.0948 2.26581,-0.8899 1.6103,1.9403 6.3967,1.9319 8.01171,-0.014 0.99788,-1.2024 2.57942,-1.3786 7.6818,-0.8558 5.63847,0.5777 6.78577,0.3917 9.36996,-1.5189 3.17245,-2.3455 4.53875,-2.062 9.82139,2.0379 3.3347,2.5881 8.6011,2.4229 10.52949,-0.3303 1.43926,-2.0548 1.63537,-2.0838 3.38545,-0.5 1.02172,0.9247 2.6321,1.6812 3.5786,1.6812 2.07104,0 7.62675,2.7569 7.60893,3.7757 -0.0146,0.836401 -4.82652,10.450601 -7.47161,14.928401 -2.4986,4.2298 -1.52674,6.8433 4.94429,13.2959 5.25857,5.2436 13.53736,16.5958 13.54234,18.5697 0.005,1.9003 5.62786,7.4303 7.55537,7.4303 3.97191,0 6.44179,2.7984 6.44887,7.3067 0.004,2.3188 0.78596,5.353 1.75,6.7875 3.45575,5.1421 7.16312,8.9248 9.68807,9.8848 2.52148,0.9586 2.56131,1.1247 1.97904,8.2497 -0.32683,3.9992 -1.23086,8.9679 -2.00897,11.0416 -0.7781,2.0736 -1.4191,5.6736 -1.42444,8 -0.008,3.3043 -0.76074,5.1744 -3.44249,8.5478 -1.88804,2.3749 -3.22533,4.8587 -2.97177,5.5195 0.4908,1.2789 6.70139,6.2923 12.32617,9.95 2.55868,1.6639 3.68615,3.3433 4.54748,6.7736 0.6299,2.5087 2.13641,5.9531 3.3478,7.6544 1.21138,1.7012 2.20252,3.9414 2.20252,4.9781 0,1.7335 -0.87435,1.8817 -10.88739,1.8456 -8.99976,-0.033 -11.22397,0.2641 -12.82874,1.7107 -1.06774,0.9625 -3.50342,1.75 -5.41261,1.75 -1.90919,0 -3.90653,0.4353 -4.43853,0.9673 -0.532,0.532 -2.7595,1.3341 -4.95,1.7825 -2.6632,0.5451 -4.30978,1.5499 -4.96986,3.0327 -0.54292,1.2196 -1.3088,2.2175 -1.70196,2.2175 -0.39315,0 -2.10342,-2.0182 -3.80059,-4.485 z"
         style="fill:#c8beb7" />
      <path
         inkscape:connector-curvature="0"
         id="path7406"
         d="m 615.32768,257.0909 c -1.52718,-0.7966 -5.35218,-3.6594 -8.5,-6.3618 -3.14781,-2.7023 -6.85539,-5.1799 -8.23906,-5.5057 -1.57123,-0.3699 -2.93149,-1.6937 -3.62304,-3.5258 -1.42922,-3.7865 -5.19202,-6.2058 -10.5731,-6.7981 -7.43639,-0.8185 -8.74563,-1.3175 -11.46533,-4.37 -1.69554,-1.9029 -3.6207,-2.9779 -5.33308,-2.9779 -1.47384,0 -3.50122,-0.9078 -4.50528,-2.0172 -1.77931,-1.9661 -1.75156,-2.0989 1.09501,-5.2404 1.60632,-1.7727 3.48308,-3.5873 4.17058,-4.0325 0.6875,-0.4451 1.25,-2.5262 1.25,-4.6247 0,-2.1982 0.78838,-4.8264 1.85992,-6.2003 2.09873,-2.6911 2.92341,-6.0847 4.10327,-16.8849 0.45063,-4.125 1.14469,-9.3542 1.54235,-11.6203 0.47149,-2.687 0.33537,-4.36 -0.39126,-4.8091 -1.95816,-1.2102 -1.20562,-6.3086 1.38572,-9.3882 3.142,-3.7341 3.12983,-4.5744 -0.0874,-6.0403 l -2.58743,-1.1789 3.08743,-3.5164 c 2.62394,-2.9885 3.0874,-4.3165 3.0874,-8.8467 0,-3.9512 0.56004,-6.0424 2.16448,-8.0821 2.11823,-2.6929 2.12622,-2.8227 0.37392,-6.0766 -1.73222,-3.2165 -1.72772,-3.4327 0.13814,-6.6331 1.90332,-3.2647 2.03515,-3.3121 10.01059,-3.5969 7.83755,-0.2798 8.17373,-0.1967 11.12045,2.75 2.01522,2.0153 4.03487,3.0386 5.99681,3.0386 2.21657,0 3.64072,0.8948 5.68044,3.569 2.38388,3.1254 3.19408,3.5349 6.51904,3.2948 3.58966,-0.2591 6.99613,1.3275 6.99613,3.2586 0,0.4827 -1.36445,0.8776 -3.03212,0.8776 -4.70475,0 -9.81567,2.5454 -10.48775,5.2231 -1.352,5.3868 4.41443,12.7769 9.96973,12.7769 2.25918,0 4.06735,0.9384 6.35397,3.2976 3.78608,3.9062 4.12254,7.5604 1.19617,12.991 -1.1,2.0413 -2.88484,5.3518 -3.96632,7.3568 -1.22179,2.2651 -3.85897,4.7263 -6.96492,6.5002 -7.86345,4.491 -8.66845,8.2658 -2.60937,12.2358 3.04731,1.9967 3.28606,4.2472 0.54293,5.1179 -1.09872,0.3487 -2.2812,1.7637 -2.62774,3.1444 -0.50017,1.9928 0.10555,3.2676 2.93814,6.1833 1.96251,2.0202 4.06838,4.798 4.67971,6.173 1.23781,2.7841 3.67025,7.7045 4.94355,10 0.65723,1.1848 2.63604,1.4475 9.41809,1.25 8.49953,-0.2475 8.6084,-0.2198 10.80405,2.75 1.87929,2.5419 2.88919,3 6.61327,3 2.4174,0 4.24528,0.4237 4.06194,0.9416 -0.53367,1.5074 -14.07137,10.0584 -15.92422,10.0584 -0.92658,0 -3.97433,1.575 -6.77279,3.5 -2.79846,1.925 -5.43645,3.5044 -5.86221,3.5097 -0.42576,0.01 -2.74994,1.5803 -5.16484,3.5 -4.83911,3.8467 -8.76206,4.4415 -13.38597,2.0296 z"
         style="fill:#c8beb7" />
      <path
         inkscape:connector-curvature="0"
         id="path7404"
         d="m 543.35438,250.4922 c -0.9625,-0.572 -1.75,-1.6768 -1.75,-2.4551 0,-0.7783 -0.9,-1.8968 -2,-2.4855 -1.1,-0.5887 -2,-1.6974 -2,-2.4638 0,-2.7492 -2.8543,-4.4341 -6.50736,-3.8413 -2.156,0.3499 -3.49264,0.1598 -3.49264,-0.4967 0,-1.4113 -3.29839,-2.4047 -5.35912,-1.6139 -0.90249,0.3463 -1.64088,1.277 -1.64088,2.0681 0,2.0438 -4.56381,6.3476 -6.73111,6.3476 -2.2964,0 -7.26889,-7.5096 -7.26889,-10.9777 0,-3.6391 -2.45719,-6.7108 -7.31608,-9.1457 -2.30116,-1.1532 -5.40501,-3.2406 -6.89745,-4.6388 l -2.71352,-2.5421 2.96352,-3.7417 c 2.20448,-2.7834 2.96353,-4.8017 2.96353,-7.88 0,-2.276 0.61481,-5.6097 1.36623,-7.4081 0.75143,-1.7984 1.69202,-7.6152 2.0902,-12.9262 0.7214,-9.6221 0.71545,-9.6585 -1.67696,-10.2589 -5.07208,-1.273 -11.05004,-9.8191 -11.76973,-16.8259 -0.50141,-4.8817 -0.60708,-5.0153 -6.46324,-8.1754 -4.53048,-2.4447 -6.386,-4.1408 -7.76293,-7.096 -2.52031,-5.4092 -5.90478,-9.8879 -12.83037,-16.9785 -3.56,-3.6449 -5.9532,-6.9652 -5.9532,-8.2595 0,-1.1905 2.025,-5.9097 4.5,-10.4872 2.475,-4.5775 4.5,-8.965001 4.5,-9.750001 0,-2.0264 3.34562,-3.8569 8.28717,-4.5342 4.10107,-0.5621 4.3014,-0.4601 5.97053,3.0401 2.30521,4.834101 5.7913,6.438901 9.17325,4.223001 2.46318,-1.613901 2.54549,-1.582101 4.16155,1.6081 2.54002,5.0143 4.46756,6.7547 7.48093,6.7547 2.12573,0 3.28389,-0.8654 5.01867,-3.75 1.24037,-2.0625 2.34484,-3.8803 2.45438,-4.0395 0.10954,-0.1592 2.34841,0.8533 4.97528,2.25 2.62687,1.3967 5.779,2.5395 7.00473,2.5395 1.22574,0 2.78882,0.675 3.47351,1.5 0.68469,0.825 2.56214,1.5 4.1721,1.5 1.60997,0 4.26467,0.6916 5.89932,1.5369 1.63466,0.8453 5.04404,1.5786 7.5764,1.6294 3.92958,0.079 5.03285,-0.3662 7.52892,-3.037 1.60855,-1.7211 3.54468,-3.1293 4.30252,-3.1293 2.90411,0 4.52074,-3.0652 4.52074,-8.571401 l 0,-5.4286 7.88337,0 c 6.84728,0 7.94735,0.2447 8.37023,1.8618 0.48284,1.8463 8.12798,5.1382 11.9332,5.1382 1.00678,0 3.73912,1.390901 6.07186,3.090901 3.68064,2.6824 4.87532,3.0317 9.03699,2.6425 l 4.79566,-0.4486 -0.29566,5.6076 -0.29565,5.6076 -8.27156,0.5 c -7.84829,0.4744 -8.37246,0.6535 -10.24341,3.5 -2.23907,3.4065 -2.55294,7.6178 -0.77942,10.4576 0.98424,1.576 0.89243,2.2766 -0.5,3.8152 -1.02457,1.1321 -1.70561,3.5242 -1.70561,5.9908 0,5.1791 -1.40989,8.919 -4.54371,12.0528 -3.06637,3.0664 -3.0594,3.5584 0.0796,5.6152 l 2.53593,1.6616 -2.03593,2.5883 c -2.11954,2.6945 -2.88439,10.6761 -1.12714,11.7621 0.52471,0.3243 0.31841,2.7794 -0.48813,5.809 -0.76831,2.8861 -1.40226,7.5887 -1.40879,10.4503 -0.0119,5.2079 -0.54197,7.1092 -4.19413,15.0437 -1.07506,2.3356 -1.69372,5.0688 -1.37478,6.0737 0.40651,1.2808 -0.76894,3.1952 -3.93154,6.4031 -4.89756,4.9677 -5.31998,6.2257 -2.96458,8.8284 1.33749,1.4779 1.38217,2.6029 0.33017,8.3123 -1.1106,6.0274 -1.05519,6.7815 0.63555,8.6498 1.46878,1.623 1.65481,2.6097 0.89861,4.7664 -0.91936,2.622 -1.24023,2.7283 -8.93239,2.96 -4.38833,0.1321 -8.76628,-0.2278 -9.72878,-0.7997 z"
         style="fill:#c8beb7" />
      <path
         inkscape:connector-curvature="0"
         id="path7402"
         d="m 250.7508,206.8016 c -6.81595,-7.8806 -7.65744,-8.6828 -10.96467,-10.4535 -1.74996,-0.9369 -3.18175,-2.3746 -3.18175,-3.1949 0,-0.8203 2.04433,-3.4076 4.54296,-5.7495 5.72685,-5.3676 5.54045,-7.3114 -1.04296,-10.8762 -4.4569,-2.4133 -4.96819,-3.0307 -4.70719,-5.6837 0.17399,-1.7684 -0.33326,-3.4958 -1.25,-4.2567 -0.88576,-0.7351 -1.52943,-2.8253 -1.51139,-4.9079 0.0415,-4.7919 3.5941,-7.608 8.44864,-6.6973 2.92296,0.5483 3.61378,0.2467 5.4995,-2.4016 1.18615,-1.6658 2.73074,-3.0287 3.43244,-3.0287 1.82624,0 10.86338,-8.9867 12.3187,-12.25 1.35004,-3.0272 3.37463,-3.5329 5.22372,-1.3049 2.29009,2.7594 11.05702,7.7645 12.57796,7.1809 2.75684,-1.0579 9.42357,2.3503 10.13397,5.1808 0.53846,2.1454 -6.6e-4,3.1431 -3.18634,5.8969 -2.10896,1.8231 -5.50844,3.7654 -7.55442,4.3163 -7.86796,2.1187 -6.56468,10.2653 3.82762,23.9261 5.19758,6.8323 7.87797,11.7561 6.92079,12.7132 -0.40605,0.4061 -2.86132,0.1367 -5.45614,-0.5987 -10.08338,-2.8576 -9.38432,-3.1346 -15.49046,6.1375 -8.07043,12.2548 -12.08509,13.5624 -18.58098,6.0519 z"
         style="fill:#c8beb7" />
      <path
         inkscape:connector-curvature="0"
         id="path7385"
         d="m 206.76446,173.3117 c -0.63804,-0.6381 -1.16008,-1.7181 -1.16008,-2.4001 0,-0.682 -2.73269,-5.2844 -6.07264,-10.2275 -6.58133,-9.7404 -9.13023,-11.4607 -15.45906,-10.4336 l -3.57418,0.58 0.63338,-5.3895 c 0.34835,-2.9642 1.94718,-7.9835 3.55294,-11.154 1.60576,-3.1706 2.91956,-6.3546 2.91956,-7.0757 0,-0.7211 1.14371,-2.3855 2.54159,-3.6988 3.35329,-3.1502 2.84258,-6.072 -1.38653,-7.9322 -3.04959,-1.3413 -3.29663,-1.7689 -2.79791,-4.8421 0.44128,-2.7193 0.0667,-3.816 -1.93759,-5.6736 -1.36653,-1.2664 -3.99975,-2.5869 -5.8516,-2.9343 -1.85185,-0.3474 -3.79722,-1.1822 -4.32304,-1.8552 -1.7563,-2.247601 -2.07216,-5.622001 -0.6377,-6.812501 0.77042,-0.6394 2.9764,-3.7563 4.90218,-6.9265 2.96556,-4.8818 4.06006,-5.8688 7.15158,-6.4487 2.71028,-0.5085 5.16709,-2.2749 9.54146,-6.8604 3.24022,-3.3965 6.13943,-7.3528 6.44267,-8.7917 0.52058,-2.4701 0.89477,-2.6193 6.70313,-2.6732 3.38347,-0.031 11.50296,-0.4587 18.04332,-0.9495 10.7438,-0.8064 12.07688,-1.1214 13.81153,-3.2636 2.11299,-2.6094 1.76452,-6.2507 -0.87896,-9.1845 -2.51869,-2.7953 -0.61724,-3.813 7.1241,-3.813 8.52637,0 10.79141,-1.3095 12.87463,-7.4435 l 1.33929,-3.9435 10.07331,0.2705 10.07332,0.2705 5.54585,-5.0224 c 6.19119,-5.6067 9.36023,-6.6096 18.74163,-5.931 5.56719,0.4027 6.31987,0.7555 9.85024,4.6177 4.4264,4.8424 7.14755,5.2782 12.06179,1.9317 3.27428,-2.2297 4.34325,-3.6185 5.38817,-7 0.32312,-1.0456 1.53054,-1.75 2.9999,-1.75 2.37894,0 2.44087,0.177 1.89895,5.4277 l -0.56019,5.4277 5.88244,3.7122 c 3.23534,2.0416 6.78244,4.7733 7.88244,6.0704 1.1,1.297 3.45568,2.639 5.23485,2.9821 2.76451,0.5331 3.67415,0.1536 6.25615,-2.6105 1.80113,-1.9281 3.27235,-4.8043 3.64295,-7.1219 0.70877,-4.4324 1.46426,-4.8622 2.87892,-1.6377 1.19002,2.7124 5.72047,3.4983 9.2569,1.6056 2.19218,-1.1732 2.64078,-1.0668 4.33764,1.0287 1.04092,1.2855 1.89259,2.8927 1.89259,3.5715 0,2.686 4.24688,5.0213 10.33805,5.6847 10.81355,1.1778 14.52813,2.0684 15.12596,3.6263 0.32069,0.8357 0.45997,1.6028 0.30953,1.7046 -4.90809,3.3227 -7.83161,6.331 -9.28519,9.5544 -1.26768,2.8112 -2.58854,4.1787 -4.39992,4.5553 -4.59321,0.9548 -5.59406,2.0032 -5.47993,5.7406 0.0908,2.9747 -0.33532,3.7367 -2.61871,4.6825 -1.49997,0.6213 -4.2011,2.6504 -6.00251,4.509 -3.12295,3.2221 -3.24523,3.6351 -2.62891,8.879 0.58605,4.9863 0.40633,5.7588 -1.92511,8.2744 -1.41433,1.5261 -2.81921,4.013301 -3.12197,5.527001 -0.50533,2.5267 -0.71408,2.6378 -2.54568,1.3549 -3.86064,-2.7041 -8.39217,1.9968 -5.26057,5.4572 0.91545,1.0115 1.91899,3.7369 2.23009,6.0563 l 0.56563,4.2171 -3.5724,-0.6702 c -2.11441,-0.3966 -3.83237,-0.2495 -4.2094,0.3605 -0.35035,0.5669 -3.06254,1.0307 -6.02709,1.0307 -4.93717,0 -5.60443,-0.281 -7.94098,-3.3444 -1.40299,-1.8394 -2.55089,-4.3738 -2.55089,-5.6319 0,-3.1155 -6.22658,-8.788 -10.53332,-9.5959 -5.68974,-1.067401 -9.27779,2.1587 -10.91428,9.8132 -0.3223,1.5076 -2.12114,4.138 -3.99741,5.8454 -2.27043,2.066 -3.62512,4.3692 -4.05036,6.8862 -0.39545,2.3407 -1.79497,4.8767 -3.67243,6.6547 -1.66841,1.58 -3.43394,3.9033 -3.92339,5.1629 -0.69225,1.7816 -1.2807,2.0885 -2.64936,1.3817 -0.9677,-0.4998 -3.48914,-1.2212 -5.60321,-1.6032 -4.26974,-0.7715 -6.56464,1.003 -6.62444,5.1223 -0.0455,3.1324 -1.43075,3.587 -5.60991,1.8408 -2.01637,-0.8425 -4.76855,-1.5318 -6.11594,-1.5318 -2.59068,0 -10.30737,-4.0919 -12.34354,-6.5453 -1.9857,-2.3926 -5.73038,-1.7557 -7.61517,1.2953 -2.54284,4.1162 -10.58199,12.25 -12.1074,12.25 -0.73443,0 -2.41351,1.1634 -3.73128,2.5853 -1.68339,1.8164 -2.99261,2.3958 -4.40227,1.9484 -2.45837,-0.7802 -7.43234,1.666 -9.55791,4.7007 -1.34697,1.9231 -2.54124,2.2641 -8.3107,2.3732 -8.82981,0.1671 -16.60792,3.0395 -17.07507,6.3057 -0.18557,1.2975 0.5977,3.6238 1.7406,5.1697 2.06349,2.791 1.47844,4.8986 -0.74313,2.6771 z"
         style="fill:#c8beb7" />
    </g>
  </g>
</svg>


